<?xml version="1.0" standalone="no"?><!DOCTYPE svg PUBLIC "-//W3C//DTD SVG 1.1//EN" "http://www.w3.org/Graphics/SVG/1.1/DTD/svg11.dtd"><svg t="1644897382396" class="icon" viewBox="0 0 1024 1024" version="1.1" xmlns="http://www.w3.org/2000/svg" p-id="13321" xmlns:xlink="http://www.w3.org/1999/xlink" width="200" height="200"><defs><style type="text/css"></style></defs><path d="M213.333333 597.333333a42.666667 42.666667 0 0 1 42.666667 42.666667v170.666667a42.666667 42.666667 0 0 1-42.666667 42.666666H170.666667V597.333333h42.666666m0-85.333333H85.333333v426.666667h128a128 128 0 0 0 128-128v-170.666667a128 128 0 0 0-128-128z m256 341.333333V512h-85.333333v426.666667h256v-85.333334z m298.666667 0V512h-85.333333v426.666667h256v-85.333334zM85.333333 85.333333v384h85.333334V170.666667h519.253333L853.333333 334.08V469.333333h85.333334v-170.666666L725.333333 85.333333z" p-id="13322" fill="#bfbfbf"></path></svg>