<?xml version="1.0" standalone="no"?><!DOCTYPE svg PUBLIC "-//W3C//DTD SVG 1.1//EN" "http://www.w3.org/Graphics/SVG/1.1/DTD/svg11.dtd"><svg t="1644903201352" class="icon" viewBox="0 0 1024 1024" version="1.1" xmlns="http://www.w3.org/2000/svg" p-id="39564" xmlns:xlink="http://www.w3.org/1999/xlink" width="200" height="200"><defs><style type="text/css"></style></defs><path d="M210.377143 1024h391.314286c83.401143 0 122.898286-42.313143 122.898285-126.537143v-74.550857h78.592c83.017143 0 124.525714-42.313143 124.525715-126.537143V359.058286c0-49.554286-9.691429-81.005714-39.899429-112.018286L684.288 39.899429C655.286857 10.477714 621.824 0 578.706286 0h-164.827429c-83.017143 0-124.928 42.313143-124.928 126.537143v74.550857h-78.573714c-83.017143 0-124.928 42.313143-124.928 126.537143V897.462857c0 84.626286 41.910857 126.537143 124.928 126.537143z m514.212571-451.346286c0-51.584-6.034286-74.148571-38.272-107.209143L464.256 239.378286c-30.628571-31.451429-56.009143-38.290286-101.540571-38.290286h-8.868572V127.341714c0-39.497143 21.76-62.464 63.268572-62.464h170.057142v210.761143c0 46.354286 22.966857 68.918857 68.918858 68.918857h206.738285v350.994286c0 39.899429-21.376 62.482286-63.268571 62.482286h-74.971429z m-58.825143-286.537143c-14.518857 0-20.150857-6.034286-20.150857-20.132571V77.769143l204.708572 208.347428zM213.577143 959.122286c-41.508571 0-63.268571-22.564571-63.268572-62.866286V328.411429c0-39.497143 21.76-62.445714 63.670858-62.445715h139.849142v233.728c0 50.779429 25.782857 75.757714 75.757715 75.757715h230.107428v320.786285c0 40.301714-21.76 62.866286-63.670857 62.866286z m223.670857-444.507429c-16.128 0-22.564571-6.436571-22.564571-22.162286V278.491429l232.521142 236.141714z" p-id="39565" fill="#eb8f39"></path></svg>