<?xml version="1.0" standalone="no"?><!DOCTYPE svg PUBLIC "-//W3C//DTD SVG 1.1//EN" "http://www.w3.org/Graphics/SVG/1.1/DTD/svg11.dtd"><svg t="1644903064917" class="icon" viewBox="0 0 1024 1024" version="1.1" xmlns="http://www.w3.org/2000/svg" p-id="37738" xmlns:xlink="http://www.w3.org/1999/xlink" width="200" height="200"><defs><style type="text/css"></style></defs><path d="M779.392 822.912h23.771429c83.017143 0 124.525714-42.313143 124.525714-126.537143V307.894857H688.749714c-41.910857 0-65.700571-23.771429-65.700571-65.700571V0H413.878857c-83.017143 0-124.928 42.313143-124.928 126.537143V146.285714h52.406857c56.813714 0 102.345143 16.128 147.492572 61.257143l228.48 229.302857c45.531429 45.531429 62.08 92.288 62.08 147.090286z m-82.596571-565.394286h211.565714c-2.432-12.909714-10.88-24.192-24.996572-38.290285l-171.666285-174.902858c-13.714286-14.098286-25.782857-22.966857-38.290286-24.978285l0.402286 214.784c0 16.530286 6.454857 23.387429 22.985143 23.387428zM210.377143 1024h389.302857c83.017143 0 124.909714-42.313143 124.909714-126.537143V573.056H432.822857c-51.986286 0-76.16-24.594286-76.16-76.16V201.088h-146.285714c-83.017143 0-124.928 42.313143-124.928 126.537143V897.462857c0 84.626286 41.910857 126.537143 124.928 126.537143z m222.043428-506.148571h270.811429c-4.022857-15.725714-14.902857-30.226286-33.042286-48.768l-209.554285-213.174858c-17.737143-18.139429-33.462857-29.019429-48.768-33.462857v274.834286c0 13.714286 6.857143 20.571429 20.553142 20.571429z" p-id="37739" fill="#eb8f39"></path></svg>