<?xml version="1.0" standalone="no"?><!DOCTYPE svg PUBLIC "-//W3C//DTD SVG 1.1//EN" "http://www.w3.org/Graphics/SVG/1.1/DTD/svg11.dtd"><svg t="1644900977812" class="icon" viewBox="0 0 1098 1024" version="1.1" xmlns="http://www.w3.org/2000/svg" p-id="24427" xmlns:xlink="http://www.w3.org/1999/xlink" width="214.453125" height="200"><defs><style type="text/css"></style></defs><path d="M1073.737143 544.036571q0 17.700571-17.700571 37.741714l-192 226.304q-24.576 29.110857-68.827429 49.444571t-81.993143 20.260571l-621.714286 0q-19.456 0-34.596571-7.460571t-15.140571-24.576q0-17.700571 17.700571-37.741714l192-226.304q24.576-29.110857 68.827429-49.444571t81.993143-20.260571l621.714286 0q19.456 0 34.596571 7.460571t15.140571 24.576zM877.714286 347.428571l0 91.428571-475.428571 0q-53.686857 0-112.566857 27.136t-93.696 68.315429l-195.437714 229.741714q0-2.267429-0.292571-7.168t-0.292571-7.168l0-548.571429q0-52.589714 37.741714-90.258286t90.258286-37.741714l182.857143 0q52.589714 0 90.258286 37.741714t37.741714 90.258286l0 18.285714 310.857143 0q52.589714 0 90.258286 37.741714t37.741714 90.258286z" p-id="24428" fill="#eb8f39"></path></svg>