<?xml version="1.0" standalone="no"?><!DOCTYPE svg PUBLIC "-//W3C//DTD SVG 1.1//EN" "http://www.w3.org/Graphics/SVG/1.1/DTD/svg11.dtd"><svg t="1646644573221" class="icon" viewBox="0 0 1024 1024" version="1.1" xmlns="http://www.w3.org/2000/svg" p-id="5925" xmlns:xlink="http://www.w3.org/1999/xlink" width="200" height="200"><defs><style type="text/css"></style></defs><path d="M271.36 356.352L28.672 873.472l46.08 46.08 303.104-303.104c-11.264-24.576-7.168-54.272 13.312-74.752 25.6-25.6 66.56-25.6 93.184 0s25.6 66.56 0 93.184c-20.48 20.48-50.176 24.576-74.752 13.312L106.496 949.248l46.08 46.08 517.12-243.712 109.568-309.248-198.656-197.632-309.248 111.616z m709.632-61.44L729.088 43.008c-20.48-20.48-54.272-20.48-74.752 0L594.944 102.4c-20.48 20.48-20.48 54.272 0 74.752l250.88 250.88c20.48 20.48 54.272 20.48 74.752 0l59.392-59.392c20.48-20.48 20.48-53.248 1.024-73.728z" fill="#FEA500" p-id="5926"></path></svg>