<?xml version="1.0" standalone="no"?><!DOCTYPE svg PUBLIC "-//W3C//DTD SVG 1.1//EN" "http://www.w3.org/Graphics/SVG/1.1/DTD/svg11.dtd"><svg t="1665501065644" class="icon" viewBox="0 0 1024 1024" version="1.1" xmlns="http://www.w3.org/2000/svg" p-id="13232" xmlns:xlink="http://www.w3.org/1999/xlink" width="200" height="200"><path d="M464.235648 559.195905l-47.788399-47.778166-143.368268 143.354965 143.368268 143.368268 47.788399-47.788399-95.579869-95.578846L464.235648 559.195905zM559.811424 750.35155l47.787376 47.788399 143.368268-143.368268-143.368268-143.354965-47.787376 47.778166 95.578846 95.575776L559.811424 750.35155zM804.298717 278.020014 697.611883 171.357739c-23.224957-23.225981-69.128427-42.247196-101.981672-42.247196L237.214145 129.110543c-32.854269 0-59.735499 26.882254-59.735499 59.735499l0 645.13316c0 32.853245 26.882254 59.735499 59.735499 59.735499l549.570687 0c32.853245 0 59.735499-26.882254 59.735499-59.735499L846.520331 380.00271c0-32.853245-19.021216-78.756715-42.246173-101.982696L804.298717 278.020014zM770.51324 311.807538c2.340301 2.340301 4.65809 5.209652 6.927783 8.458649L655.390269 320.266188 655.390269 198.213387c3.248997 2.27174 6.115278 4.586458 8.459672 6.930853l106.685811 106.663298L770.51324 311.807538zM798.753421 833.980225c0 6.475482-5.472642 11.948123-11.948123 11.948123l-549.566594 0c-6.475482 0-11.9471-5.472642-11.9471-11.948123l0-645.13316c0-6.475482 5.471618-11.948123 11.9471-11.948123l358.415043 0c3.606131 0 7.646144 0.455371 11.94403 1.2689l0 189.886745 189.890838 0c0.813528 4.303003 1.263783 8.338922 1.263783 11.948123L798.752398 833.980225 798.753421 833.980225zM798.753421 833.980225" p-id="13233" fill="#1afa29"></path></svg>